<?xml version="1.0" encoding="UTF-8"?><svg id="Calque_1" xmlns="http://www.w3.org/2000/svg" viewBox="0 0 792 187.66"><defs><style>.cls-1{letter-spacing:0em;}.cls-2{letter-spacing:.02em;}.cls-3{stroke-miterlimit:10;}.cls-3,.cls-4{fill:none;stroke:#1d1d1b;stroke-linecap:round;stroke-width:2px;}.cls-5{letter-spacing:-.01em;}.cls-6{fill:#1d1d1b;font-family:MyriadPro-Regular, 'Myriad Pro';font-size:117.91px;}.cls-4{stroke-linejoin:round;}</style></defs><path class="cls-4" d="m144.33,130.28l-34.01-17.76c-2-13.06-13.29-23.07-26.91-23.07-4.29,0-8.35.99-11.96,2.76l-33.93-17.72,106.81-55.78,34.01,17.76c2,13.06,13.29,23.07,26.91,23.07,4.29,0,8.35-.99,11.96-2.76l33.93,17.72-106.81,55.78Z"/><line class="cls-3" x1="72.09" y1="56.74" x2="95.68" y2="69.06"/><line class="cls-3" x1="112.6" y1="77.9" x2="136.2" y2="90.22"/><line class="cls-3" x1="154.29" y1="99.67" x2="177.89" y2="112"/><path class="cls-4" d="m74.63,128.58c0,19.77,31.2,35.81,69.7,35.81s69.7-16.05,69.7-35.81"/><line class="cls-4" x1="41.94" y1="76.8" x2="41.94" y2="124.17"/><line class="cls-4" x1="65.6" y1="89.16" x2="65.6" y2="124.17"/><polyline class="cls-4" points="65.61 124.17 53.78 103.68 41.95 124.17"/><line class="cls-4" x1="74.62" y1="92.17" x2="74.62" y2="128.58"/><line class="cls-4" x1="214.03" y1="93.15" x2="214.03" y2="128.58"/><text class="cls-6" transform="translate(264.56 135.66)"><tspan x="0" y="0">TE</tspan><tspan class="cls-5" x="116.61" y="0">A</tspan><tspan x="187" y="0">CK</tspan><tspan class="cls-2" x="319.29" y="0">E</tspan><tspan class="cls-1" x="379.18" y="0">T</tspan><tspan x="437.07" y="0">S</tspan></text></svg>